<?xml version="1.0" encoding="UTF-8"?>
<svg xmlns="http://www.w3.org/2000/svg" version="1.1" xmlns:xlink="http://www.w3.org/1999/xlink" viewBox="0 0 750 500">
  <!-- Generator: Adobe Illustrator 29.0.1, SVG Export Plug-In . SVG Version: 2.1.0 Build 192)  -->
  <defs>
    <style>
      .st0 {
        stroke-width: 1.04px;
      }

      .st0, .st1, .st2, .st3, .st4, .st5, .st6, .st7, .st8, .st9, .st10, .st11, .st12, .st13 {
        fill: none;
      }

      .st0, .st1, .st2, .st3, .st4, .st5, .st6, .st8, .st9, .st10, .st11, .st12, .st13 {
        stroke-miterlimit: 10;
      }

      .st0, .st5, .st9 {
        stroke: #d93658;
      }

      .st14 {
        fill: #5a5bcd;
      }

      .st1 {
        stroke-width: 1.97px;
      }

      .st1, .st3, .st4, .st8, .st13 {
        stroke: #f2cc45;
      }

      .st2 {
        stroke: #5a5acf;
        stroke-width: 1.2px;
      }

      .st3, .st9 {
        stroke-width: 3px;
      }

      .st15 {
        fill: #fff;
      }

      .st16 {
        fill: #d93658;
      }

      .st6 {
        stroke: #fff;
      }

      .st17 {
        fill: #f1cd44;
      }

      .st18 {
        clip-path: url(#clippath-1);
      }

      .st8, .st10 {
        stroke-width: 1.5px;
      }

      .st9, .st12 {
        stroke-linecap: round;
      }

      .st10, .st11, .st12 {
        stroke: #5a5bcd;
      }

      .st19 {
        fill: #f2cc45;
      }

      .st12 {
        stroke-dasharray: 0 4.99;
        stroke-width: 2px;
      }

      .st13 {
        stroke-width: .66px;
      }

      .st20 {
        clip-path: url(#clippath-2);
      }

      .st21 {
        clip-path: url(#clippath);
      }
    </style>
    <clipPath id="clippath">
      <rect class="st7" width="750" height="500"/>
    </clipPath>
    <clipPath id="clippath-1">
      <circle class="st7" cx="681.21" cy="297.11" r="52.1"/>
    </clipPath>
    <clipPath id="clippath-2">
      <circle class="st7" cx="24.34" cy="86.01" r="62.86" transform="translate(-53.69 42.4) rotate(-45)"/>
    </clipPath>
  </defs>
  <g id="BACKGROUND">
    <rect class="st15" width="750" height="500"/>
  </g>
  <g id="OBJECTS">
    <g class="st21">
      <path class="st10" d="M-105.66,29.32C-74.69,66.61-40.52,102.94,3,124.3c43.52,21.35,98.43,25.19,138.97-1.39,36.61-24,58.43-69.76,100.12-83.1,26.21-8.39,54.76-1.8,80.77,7.19,26.01,8.99,51.77,20.48,79.24,21.99,45.12,2.48,88.15-22.98,117.83-57.06,29.68-34.08,48.27-76.17,66.42-117.55"/>
      <path class="st8" d="M215.46,578.89c-6.21-77.13,33.29-156.22,98.67-197.6,65.38-41.38,153.77-43.22,220.82-4.6,15.46,8.91,29.83,19.76,45.99,27.32,16.16,7.56,34.95,11.64,51.9,6.06,18.56-6.11,31.52-22.37,45.9-35.61,30.42-28.01,71.3-44.4,112.64-45.14,41.35-.75,82.79,14.15,114.19,41.05"/>
      <circle class="st14" cx="96.85" cy="21.92" r="37.85" transform="translate(53.26 111.14) rotate(-76.72)"/>
      <path class="st16" d="M708.76,68.79c3.36-8.44,2.38-19.33-4.74-24.97-5.6-4.43-13.46-4.63-20.5-3.43s-13.94,3.58-21.07,3.59c-11.59.02-22.15-6.15-33.24-9.54-11.08-3.39-25.27-2.95-31.68,6.7-6.3,9.5-1.49,22.52,5.61,31.43,25.1,31.5,88.12,40.09,105.61-3.79Z"/>
      <path class="st12" d="M237.61,437.78c-2.75,6.89-1.94,15.79,3.87,20.4,4.57,3.62,10.99,3.78,16.74,2.8,5.75-.98,11.38-2.93,17.22-2.94,9.47-.01,18.1,5.03,27.15,7.8,9.05,2.77,20.64,2.41,25.88-5.48,5.15-7.76,1.22-18.39-4.59-25.68-20.5-25.73-71.98-32.75-86.28,3.09Z"/>
      <path class="st14" d="M-6.36,301.93c-.29,19.92,13.57,39.23,32.54,45.33,12.29,3.95,27.05,2.11,36.07-7.13,9.01-9.24,9.62-26.34-.51-34.34-6.27-4.96-15.03-5.77-21.46-10.52-10.36-7.65-8.03-37.36-21.94-33.85-14.84,3.75-24.49,27.13-24.69,40.52Z"/>
      <path class="st16" d="M503.88,20.32h0c2.91,0,5.37,2.28,5.61,5.19.25,3.1-2.07,5.83-5.17,6.08-.16.01-.32.02-.47.02-2.91,0-5.37-2.28-5.61-5.19-.12-1.5.35-2.96,1.32-4.11.98-1.15,2.34-1.85,3.84-1.97.16-.01.32-.02.47-.02M503.88,12.32c-.37,0-.74.02-1.12.05-7.51.61-13.1,7.19-12.5,14.7.58,7.14,6.55,12.54,13.58,12.54.37,0,.74-.02,1.12-.05,7.51-.61,13.1-7.19,12.5-14.7-.58-7.14-6.55-12.54-13.58-12.54h0Z"/>
      <path class="st14" d="M634.62,102.82c-13.41,19.2-17.79,43.69-15.66,67.01.79,8.61,2.59,17.55,8.07,24.24,5.48,6.69,15.56,10.27,23.1,6.03,5.29-2.98,8.21-8.96,13.12-12.54,6.33-4.62,14.98-4.56,22.62-2.81s14.94,4.96,22.71,6.05c15.54,2.17,31.76-4.94,41.63-17.15,9.87-12.2,13.47-28.93,10.7-44.37-2.78-15.44-11.62-29.51-23.55-39.69-24.16-20.62-57-23.44-83.58-5.55-7.45,5.02-13.99,11.42-19.14,18.79Z"/>
      <path class="st16" d="M403.71,534.24c13.41-19.2,17.79-43.69,15.66-67.01-.79-8.61-2.59-17.55-8.07-24.24-5.48-6.69-15.56-10.27-23.1-6.03-5.29,2.98-8.21,8.96-13.12,12.54-6.33,4.62-14.98,4.56-22.62,2.81s-14.94-4.96-22.71-6.05c-15.54-2.17-31.76,4.94-41.63,17.15-9.87,12.2-13.47,28.93-10.7,44.37,2.78,15.44,11.62,29.51,23.55,39.69,24.16,20.62,57,23.44,83.58,5.55,7.45-5.02,13.99-11.42,19.14-18.79Z"/>
      <path class="st17" d="M704.91,338.92c-3.26,9.57-1.85,20.6,3.71,29.04,2.67,4.05,6.43,7.63,11.11,8.89,4.68,1.26,10.31-.31,12.78-4.49,1.92-3.25,1.65-7.33.85-11.02-.8-3.69-2.08-7.34-2.01-11.11.08-4.29,1.91-8.32,3.36-12.35,1.45-4.04,2.55-8.5,1.19-12.56-2.86-8.54-12.04-7.29-17.86-3.38-6.04,4.06-10.78,10.08-13.13,16.98Z"/>
      <path class="st16" d="M736.73,201.06c4.33,5.77,4.5,14.33.4,20.27-4.09,5.94-12.15,8.83-19.08,6.84-6.94-1.99-12.24-8.7-12.56-15.91-.75-16.67,21.23-24.56,31.24-11.2Z"/>
      <path class="st17" d="M45.13,233.55c2.71,3.62,2.82,8.98.25,12.7-2.57,3.72-7.61,5.53-11.96,4.29-4.35-1.25-7.67-5.45-7.87-9.97-.47-10.45,13.31-15.39,19.58-7.02Z"/>
      <g class="st18">
        <line class="st2" x1="579.66" y1="295.89" x2="696.07" y2="187.33"/>
        <line class="st2" x1="584.98" y1="301.59" x2="701.39" y2="193.03"/>
        <line class="st2" x1="590.29" y1="307.3" x2="706.71" y2="198.73"/>
        <line class="st2" x1="595.61" y1="313" x2="712.02" y2="204.43"/>
        <line class="st2" x1="600.93" y1="318.7" x2="717.34" y2="210.13"/>
        <line class="st2" x1="606.24" y1="324.4" x2="722.66" y2="215.83"/>
        <line class="st2" x1="611.56" y1="330.1" x2="727.97" y2="221.53"/>
        <line class="st2" x1="616.88" y1="335.8" x2="733.29" y2="227.23"/>
        <line class="st2" x1="622.19" y1="341.5" x2="738.6" y2="232.93"/>
        <line class="st2" x1="627.51" y1="347.2" x2="743.92" y2="238.64"/>
        <line class="st2" x1="632.82" y1="352.9" x2="749.24" y2="244.34"/>
        <line class="st2" x1="638.14" y1="358.6" x2="754.55" y2="250.04"/>
        <line class="st2" x1="643.46" y1="364.3" x2="759.87" y2="255.74"/>
        <line class="st2" x1="648.77" y1="370" x2="765.19" y2="261.44"/>
        <line class="st2" x1="654.09" y1="375.7" x2="770.5" y2="267.14"/>
        <line class="st2" x1="659.41" y1="381.4" x2="775.82" y2="272.84"/>
        <line class="st2" x1="664.72" y1="387.1" x2="781.13" y2="278.54"/>
        <line class="st2" x1="670.04" y1="392.8" x2="786.45" y2="284.24"/>
        <line class="st2" x1="675.35" y1="398.51" x2="791.77" y2="289.94"/>
        <line class="st2" x1="680.67" y1="404.21" x2="797.08" y2="295.64"/>
      </g>
      <path class="st19" d="M144.34,411.66c-14.45,2-29.25,5.44-43.89,3.25-16.57-2.49-33.92-9.76-50.87-6.25-8.43,1.75-14.44,6.78-16.35,15.36-5.62,25.28,29.48,41.03,43,56.64,7.16,8.26,10.53,18.33,14.6,28.28,6.07,14.86,17.28,35.64,35.57,36.68,22.17,1.26,34.75-21.3,43.1-38.43,9.13-18.71,18.84-39.23,19.81-60.37.53-11.54-3.63-22.92-13.29-29.72-9.74-6.86-20.6-6.98-31.7-5.44Z"/>
      <path class="st9" d="M281.78,430.06c2.44,30.15-20.01,56.57-50.16,59.02-30.15,2.44-56.57-20.01-59.02-50.16-2.44-30.15,20.01-56.57,50.16-59.02"/>
      <path class="st9" d="M587.95,116.57c7.33-.59,8.51,14.02,15.84,13.43,7.33-.59,6.15-15.21,13.48-15.8,7.33-.59,8.51,14.02,15.84,13.43,7.33-.59,6.15-15.21,13.48-15.8,7.33-.59,8.52,14.02,15.85,13.43"/>
      <line class="st6" x1="632.87" y1="170.32" x2="681.53" y2="166.38"/>
      <g>
        <path class="st14" d="M570.76,446.84c21.39-18.39,23.83-50.63,5.45-72.03l-77.47,66.58c18.39,21.39,50.63,23.83,72.03,5.45Z"/>
        <line class="st4" x1="490.63" y1="473.51" x2="618.98" y2="363.21"/>
        <line class="st3" x1="553.06" y1="438.52" x2="602.07" y2="396.4"/>
      </g>
      <g>
        <path class="st16" d="M146.79,44.55c-14.06,12.08-15.66,33.28-3.58,47.34l50.92-43.76c-12.08-14.06-33.28-15.66-47.34-3.58Z"/>
        <line class="st13" x1="199.46" y1="27.02" x2="115.1" y2="99.52"/>
        <line class="st1" x1="158.42" y1="50.02" x2="126.21" y2="77.7"/>
      </g>
      <polygon class="st16" points="85.2 178.19 90.92 248.73 192.73 240.48 85.2 178.19"/>
      <g>
        <path class="st14" d="M17.56,169.14c.05.57-.38,1.07-.95,1.11-.57.05-1.07-.38-1.11-.95-.05-.57.38-1.07.95-1.11.57-.05,1.07.38,1.11.95Z"/>
        <path class="st14" d="M30.68,168.07c.05.57-.38,1.07-.95,1.11-.57.05-1.07-.38-1.11-.95-.05-.57.38-1.07.95-1.11.57-.05,1.07.38,1.11.95Z"/>
        <path class="st14" d="M43.8,167.01c.05.57-.38,1.07-.95,1.11-.57.05-1.07-.38-1.11-.95s.38-1.07.95-1.11c.57-.05,1.07.38,1.11.95Z"/>
        <path class="st14" d="M56.92,165.94c.05.57-.38,1.07-.95,1.11-.57.05-1.07-.38-1.11-.95-.05-.57.38-1.07.95-1.11.57-.05,1.07.38,1.11.95Z"/>
        <path class="st14" d="M70.04,164.88c.05.57-.38,1.07-.95,1.11-.57.05-1.07-.38-1.11-.95-.05-.57.38-1.07.95-1.11.57-.05,1.07.38,1.11.95Z"/>
        <path class="st14" d="M83.16,163.82c.05.57-.38,1.07-.95,1.11-.57.05-1.07-.38-1.11-.95-.05-.57.38-1.07.95-1.11.57-.05,1.07.38,1.11.95Z"/>
        <path class="st14" d="M96.29,162.75c.05.57-.38,1.07-.95,1.11-.57.05-1.07-.38-1.11-.95-.05-.57.38-1.07.95-1.11.57-.05,1.07.38,1.11.95Z"/>
        <path class="st14" d="M109.41,161.69c.05.57-.38,1.07-.95,1.11-.57.05-1.07-.38-1.11-.95s.38-1.07.95-1.11c.57-.05,1.07.38,1.11.95Z"/>
        <path class="st14" d="M122.53,160.62c.05.57-.38,1.07-.95,1.11-.57.05-1.07-.38-1.11-.95-.05-.57.38-1.07.95-1.11.57-.05,1.07.38,1.11.95Z"/>
        <path class="st14" d="M18.36,179.03c.05.57-.38,1.07-.95,1.11-.57.05-1.07-.38-1.11-.95-.05-.57.38-1.07.95-1.11.57-.05,1.07.38,1.11.95Z"/>
        <path class="st14" d="M31.48,177.96c.05.57-.38,1.07-.95,1.11-.57.05-1.07-.38-1.11-.95-.05-.57.38-1.07.95-1.11.57-.05,1.07.38,1.11.95Z"/>
        <path class="st14" d="M44.6,176.9c.05.57-.38,1.07-.95,1.11-.57.05-1.07-.38-1.11-.95-.05-.57.38-1.07.95-1.11.57-.05,1.07.38,1.11.95Z"/>
        <path class="st14" d="M57.72,175.84c.05.57-.38,1.07-.95,1.11-.57.05-1.07-.38-1.11-.95-.05-.57.38-1.07.95-1.11.57-.05,1.07.38,1.11.95Z"/>
        <path class="st14" d="M70.85,174.77c.05.57-.38,1.07-.95,1.11-.57.05-1.07-.38-1.11-.95-.05-.57.38-1.07.95-1.11.57-.05,1.07.38,1.11.95Z"/>
        <path class="st14" d="M83.97,173.71c.05.57-.38,1.07-.95,1.11-.57.05-1.07-.38-1.11-.95-.05-.57.38-1.07.95-1.11.57-.05,1.07.38,1.11.95Z"/>
        <path class="st14" d="M97.09,172.64c.05.57-.38,1.07-.95,1.11-.57.05-1.07-.38-1.11-.95-.05-.57.38-1.07.95-1.11.57-.05,1.07.38,1.11.95Z"/>
        <path class="st14" d="M110.21,171.58c.05.57-.38,1.07-.95,1.11-.57.05-1.07-.38-1.11-.95-.05-.57.38-1.07.95-1.11.57-.05,1.07.38,1.11.95Z"/>
        <path class="st14" d="M123.33,170.52c.05.57-.38,1.07-.95,1.11-.57.05-1.07-.38-1.11-.95-.05-.57.38-1.07.95-1.11.57-.05,1.07.38,1.11.95Z"/>
        <path class="st14" d="M19.16,188.92c.05.57-.38,1.07-.95,1.11-.57.05-1.07-.38-1.11-.95-.05-.57.38-1.07.95-1.11.57-.05,1.07.38,1.11.95Z"/>
        <path class="st14" d="M32.28,187.86c.05.57-.38,1.07-.95,1.11-.57.05-1.07-.38-1.11-.95-.05-.57.38-1.07.95-1.11.57-.05,1.07.38,1.11.95Z"/>
        <path class="st14" d="M45.41,186.79c.05.57-.38,1.07-.95,1.11-.57.05-1.07-.38-1.11-.95-.05-.57.38-1.07.95-1.11.57-.05,1.07.38,1.11.95Z"/>
        <path class="st14" d="M58.53,185.73c.05.57-.38,1.07-.95,1.11-.57.05-1.07-.38-1.11-.95-.05-.57.38-1.07.95-1.11.57-.05,1.07.38,1.11.95Z"/>
        <path class="st14" d="M71.65,184.66c.05.57-.38,1.07-.95,1.11-.57.05-1.07-.38-1.11-.95-.05-.57.38-1.07.95-1.11.57-.05,1.07.38,1.11.95Z"/>
        <path class="st14" d="M84.77,183.6c.05.57-.38,1.07-.95,1.11-.57.05-1.07-.38-1.11-.95-.05-.57.38-1.07.95-1.11.57-.05,1.07.38,1.11.95Z"/>
        <path class="st14" d="M97.89,182.54c.05.57-.38,1.07-.95,1.11-.57.05-1.07-.38-1.11-.95-.05-.57.38-1.07.95-1.11.57-.05,1.07.38,1.11.95Z"/>
        <path class="st14" d="M111.01,181.47c.05.57-.38,1.07-.95,1.11-.57.05-1.07-.38-1.11-.95-.05-.57.38-1.07.95-1.11.57-.05,1.07.38,1.11.95Z"/>
        <path class="st14" d="M124.13,180.41c.05.57-.38,1.07-.95,1.11-.57.05-1.07-.38-1.11-.95-.05-.57.38-1.07.95-1.11.57-.05,1.07.38,1.11.95Z"/>
        <path class="st14" d="M19.96,198.81c.05.57-.38,1.07-.95,1.11-.57.05-1.07-.38-1.11-.95-.05-.57.38-1.07.95-1.11.57-.05,1.07.38,1.11.95Z"/>
        <path class="st14" d="M33.09,197.75c.05.57-.38,1.07-.95,1.11-.57.05-1.07-.38-1.11-.95-.05-.57.38-1.07.95-1.11.57-.05,1.07.38,1.11.95Z"/>
        <path class="st14" d="M46.21,196.68c.05.57-.38,1.07-.95,1.11-.57.05-1.07-.38-1.11-.95-.05-.57.38-1.07.95-1.11.57-.05,1.07.38,1.11.95Z"/>
        <path class="st14" d="M59.33,195.62c.05.57-.38,1.07-.95,1.11-.57.05-1.07-.38-1.11-.95-.05-.57.38-1.07.95-1.11.57-.05,1.07.38,1.11.95Z"/>
        <path class="st14" d="M72.45,194.56c.05.57-.38,1.07-.95,1.11-.57.05-1.07-.38-1.11-.95-.05-.57.38-1.07.95-1.11s1.07.38,1.11.95Z"/>
        <path class="st14" d="M85.57,193.49c.05.57-.38,1.07-.95,1.11-.57.05-1.07-.38-1.11-.95-.05-.57.38-1.07.95-1.11.57-.05,1.07.38,1.11.95Z"/>
        <path class="st14" d="M98.69,192.43c.05.57-.38,1.07-.95,1.11-.57.05-1.07-.38-1.11-.95-.05-.57.38-1.07.95-1.11.57-.05,1.07.38,1.11.95Z"/>
        <path class="st14" d="M111.81,191.36c.05.57-.38,1.07-.95,1.11-.57.05-1.07-.38-1.11-.95-.05-.57.38-1.07.95-1.11.57-.05,1.07.38,1.11.95Z"/>
        <path class="st14" d="M124.93,190.3c.05.57-.38,1.07-.95,1.11-.57.05-1.07-.38-1.11-.95-.05-.57.38-1.07.95-1.11.57-.05,1.07.38,1.11.95Z"/>
        <path class="st14" d="M20.77,208.71c.05.57-.38,1.07-.95,1.11-.57.05-1.07-.38-1.11-.95-.05-.57.38-1.07.95-1.11.57-.05,1.07.38,1.11.95Z"/>
        <path class="st14" d="M33.89,207.64c.05.57-.38,1.07-.95,1.11-.57.05-1.07-.38-1.11-.95-.05-.57.38-1.07.95-1.11s1.07.38,1.11.95Z"/>
        <path class="st14" d="M47.01,206.58c.05.57-.38,1.07-.95,1.11-.57.05-1.07-.38-1.11-.95-.05-.57.38-1.07.95-1.11.57-.05,1.07.38,1.11.95Z"/>
        <path class="st14" d="M60.13,205.51c.05.57-.38,1.07-.95,1.11-.57.05-1.07-.38-1.11-.95-.05-.57.38-1.07.95-1.11.57-.05,1.07.38,1.11.95Z"/>
        <path class="st14" d="M73.25,204.45c.05.57-.38,1.07-.95,1.11-.57.05-1.07-.38-1.11-.95-.05-.57.38-1.07.95-1.11.57-.05,1.07.38,1.11.95Z"/>
        <path class="st14" d="M86.37,203.39c.05.57-.38,1.07-.95,1.11-.57.05-1.07-.38-1.11-.95-.05-.57.38-1.07.95-1.11.57-.05,1.07.38,1.11.95Z"/>
        <path class="st14" d="M99.49,202.32c.05.57-.38,1.07-.95,1.11-.57.05-1.07-.38-1.11-.95-.05-.57.38-1.07.95-1.11.57-.05,1.07.38,1.11.95Z"/>
        <path class="st14" d="M112.62,201.26c.05.57-.38,1.07-.95,1.11-.57.05-1.07-.38-1.11-.95-.05-.57.38-1.07.95-1.11.57-.05,1.07.38,1.11.95Z"/>
        <path class="st14" d="M125.74,200.19c.05.57-.38,1.07-.95,1.11-.57.05-1.07-.38-1.11-.95-.05-.57.38-1.07.95-1.11.57-.05,1.07.38,1.11.95Z"/>
        <path class="st14" d="M21.57,218.6c.05.57-.38,1.07-.95,1.11-.57.05-1.07-.38-1.11-.95-.05-.57.38-1.07.95-1.11.57-.05,1.07.38,1.11.95Z"/>
        <path class="st14" d="M34.69,217.53c.05.57-.38,1.07-.95,1.11-.57.05-1.07-.38-1.11-.95-.05-.57.38-1.07.95-1.11.57-.05,1.07.38,1.11.95Z"/>
        <path class="st14" d="M47.81,216.47c.05.57-.38,1.07-.95,1.11-.57.05-1.07-.38-1.11-.95-.05-.57.38-1.07.95-1.11.57-.05,1.07.38,1.11.95Z"/>
        <path class="st14" d="M60.93,215.41c.05.57-.38,1.07-.95,1.11-.57.05-1.07-.38-1.11-.95-.05-.57.38-1.07.95-1.11.57-.05,1.07.38,1.11.95Z"/>
        <path class="st14" d="M74.05,214.34c.05.57-.38,1.07-.95,1.11-.57.05-1.07-.38-1.11-.95-.05-.57.38-1.07.95-1.11.57-.05,1.07.38,1.11.95Z"/>
        <path class="st14" d="M87.18,213.28c.05.57-.38,1.07-.95,1.11-.57.05-1.07-.38-1.11-.95-.05-.57.38-1.07.95-1.11.57-.05,1.07.38,1.11.95Z"/>
        <path class="st14" d="M100.3,212.21c.05.57-.38,1.07-.95,1.11-.57.05-1.07-.38-1.11-.95-.05-.57.38-1.07.95-1.11.57-.05,1.07.38,1.11.95Z"/>
        <path class="st14" d="M113.42,211.15c.05.57-.38,1.07-.95,1.11-.57.05-1.07-.38-1.11-.95-.05-.57.38-1.07.95-1.11.57-.05,1.07.38,1.11.95Z"/>
        <path class="st14" d="M126.54,210.09c.05.57-.38,1.07-.95,1.11-.57.05-1.07-.38-1.11-.95-.05-.57.38-1.07.95-1.11.57-.05,1.07.38,1.11.95Z"/>
      </g>
      <line class="st4" x1="82.31" y1="276.15" x2="173.97" y2="198.35"/>
      <g>
        <line class="st3" x1="476.42" y1="102.19" x2="523.31" y2="62.39"/>
        <path class="st14" d="M549.5,54.63l4.1,50.53-50.53,4.1-4.1-50.53,50.53-4.1M555.91,47.09l-64.48,5.23,5.23,64.48,64.48-5.23-5.23-64.48h0Z"/>
        <line class="st5" x1="469.9" y1="128.5" x2="567.57" y2="46.15"/>
      </g>
      <g>
        <line class="st5" x1="114.53" y1="300.11" x2="115.36" y2="307.79"/>
        <line class="st5" x1="116.23" y1="315.87" x2="117.06" y2="323.56"/>
        <line class="st5" x1="127.52" y1="310.57" x2="119.84" y2="311.4"/>
        <line class="st5" x1="111.76" y1="312.27" x2="104.07" y2="313.1"/>
      </g>
      <g>
        <line class="st6" x1="83.74" y1="21.78" x2="84.57" y2="29.46"/>
        <line class="st6" x1="85.44" y1="37.54" x2="86.27" y2="45.22"/>
        <line class="st6" x1="96.73" y1="32.24" x2="89.04" y2="33.07"/>
        <line class="st6" x1="80.97" y1="33.94" x2="73.28" y2="34.77"/>
      </g>
      <g>
        <line class="st11" x1="539.02" y1="133.22" x2="539.72" y2="139.71"/>
        <line class="st11" x1="540.46" y1="146.53" x2="541.16" y2="153.02"/>
        <line class="st11" x1="549.99" y1="142.05" x2="543.5" y2="142.75"/>
        <line class="st11" x1="536.68" y1="143.49" x2="530.19" y2="144.19"/>
      </g>
      <g>
        <line class="st4" x1="691.06" y1="410.14" x2="692.29" y2="421.57"/>
        <line class="st4" x1="693.58" y1="433.59" x2="694.82" y2="445.02"/>
        <line class="st4" x1="710.37" y1="425.7" x2="698.94" y2="426.93"/>
        <line class="st4" x1="686.93" y1="428.23" x2="675.5" y2="429.46"/>
      </g>
      <path class="st16" d="M606.91,310.07c8.43,0,15.29,6.86,15.29,15.29s-6.86,15.29-15.29,15.29-15.29-6.86-15.29-15.29,6.86-15.29,15.29-15.29M606.91,305.97c-10.71,0-19.39,8.68-19.39,19.39s8.68,19.39,19.39,19.39,19.39-8.68,19.39-19.39-8.68-19.39-19.39-19.39h0Z"/>
      <g class="st20">
        <line class="st0" x1="-102.51" y1="80.08" x2="43.65" y2="-52.47"/>
        <line class="st0" x1="-98.16" y1="84.87" x2="48" y2="-47.67"/>
        <line class="st0" x1="-93.81" y1="89.67" x2="52.35" y2="-42.88"/>
        <line class="st0" x1="-89.46" y1="94.46" x2="56.69" y2="-38.09"/>
        <line class="st0" x1="-85.12" y1="99.25" x2="61.04" y2="-33.29"/>
        <line class="st0" x1="-80.77" y1="104.05" x2="65.39" y2="-28.5"/>
        <line class="st0" x1="-76.42" y1="108.84" x2="69.73" y2="-23.71"/>
        <line class="st0" x1="-72.08" y1="113.64" x2="74.08" y2="-18.91"/>
        <line class="st0" x1="-67.73" y1="118.43" x2="78.43" y2="-14.12"/>
        <line class="st0" x1="-63.38" y1="123.22" x2="82.78" y2="-9.33"/>
        <line class="st0" x1="-59.03" y1="128.02" x2="87.12" y2="-4.53"/>
        <line class="st0" x1="-54.69" y1="132.81" x2="91.47" y2=".26"/>
        <line class="st0" x1="-50.34" y1="137.6" x2="95.82" y2="5.05"/>
        <line class="st0" x1="-45.99" y1="142.4" x2="100.16" y2="9.85"/>
        <line class="st0" x1="-41.64" y1="147.19" x2="104.51" y2="14.64"/>
        <line class="st0" x1="-37.3" y1="151.98" x2="108.86" y2="19.43"/>
        <line class="st0" x1="-32.95" y1="156.78" x2="113.21" y2="24.23"/>
        <line class="st0" x1="-28.6" y1="161.57" x2="117.55" y2="29.02"/>
        <line class="st0" x1="-24.26" y1="166.36" x2="121.9" y2="33.81"/>
        <line class="st0" x1="-19.91" y1="171.16" x2="126.25" y2="38.61"/>
        <line class="st0" x1="-15.56" y1="175.95" x2="130.59" y2="43.4"/>
        <line class="st0" x1="-11.21" y1="180.74" x2="134.94" y2="48.19"/>
        <line class="st0" x1="-6.87" y1="185.54" x2="139.29" y2="52.99"/>
        <line class="st0" x1="-2.52" y1="190.33" x2="143.64" y2="57.78"/>
        <line class="st0" x1="1.83" y1="195.12" x2="147.98" y2="62.57"/>
        <line class="st0" x1="6.17" y1="199.92" x2="152.33" y2="67.37"/>
        <line class="st0" x1="10.52" y1="204.71" x2="156.68" y2="72.16"/>
        <line class="st0" x1="14.87" y1="209.5" x2="161.02" y2="76.96"/>
        <line class="st0" x1="19.22" y1="214.3" x2="165.37" y2="81.75"/>
      </g>
    </g>
  </g>
</svg>